<mxfile host="app.diagrams.net" modified="2025-08-21" agent="trae-ai">
  <diagram name="业务架构-泳道">
    <mxGraphModel dx="1400" dy="900" grid="1" gridSize="10" guides="1" tooltips="1" connect="1" arrows="1" fold="1" page="1" pageScale="1" pageWidth="1400" pageHeight="900" math="0" shadow="0">
      <root>
        <mxCell id="0"/>
        <mxCell id="1" parent="0"/>
        
        <!-- 泳道（以颜色区分角色） -->
        <mxCell id="lane_user" value="用户" style="swimlane;fontStyle=1;horizontal=1;startSize=24;fillColor=#dae8fc;strokeColor=#6c8ebf;" vertex="1" parent="1">
          <mxGeometry x="40" y="80" width="1280" height="220" as="geometry"/>
        </mxCell>
        <mxCell id="lane_ops" value="运营/审核" style="swimlane;fontStyle=1;horizontal=1;startSize=24;fillColor=#e1d5e7;strokeColor=#9673a6;" vertex="1" parent="1">
          <mxGeometry x="40" y="320" width="1280" height="220" as="geometry"/>
        </mxCell>
        <mxCell id="lane_sys" value="系统/服务" style="swimlane;fontStyle=1;horizontal=1;startSize=24;fillColor=#d5e8d4;strokeColor=#82b366;" vertex="1" parent="1">
          <mxGeometry x="40" y="560" width="1280" height="220" as="geometry"/>
        </mxCell>

        <!-- 用户泳道节点 -->
        <mxCell id="u1" value="提出报告需求" style="rounded=1;whiteSpace=wrap;html=1;fillColor=#fff2cc;strokeColor=#d6b656;" vertex="1" parent="lane_user">
          <mxGeometry x="40" y="60" width="160" height="60" as="geometry"/>
        </mxCell>
        <mxCell id="u2" value="补充数据/选择模板" style="rounded=1;whiteSpace=wrap;html=1;fillColor=#fff2cc;strokeColor=#d6b656;" vertex="1" parent="lane_user">
          <mxGeometry x="260" y="60" width="180" height="60" as="geometry"/>
        </mxCell>
        <mxCell id="u3" value="确认草稿/反馈" style="rounded=1;whiteSpace=wrap;html=1;fillColor=#fff2cc;strokeColor=#d6b656;" vertex="1" parent="lane_user">
          <mxGeometry x="500" y="60" width="160" height="60" as="geometry"/>
        </mxCell>

        <!-- 运营泳道节点 -->
        <mxCell id="o1" value="内容审核/规范校验" style="rounded=1;whiteSpace=wrap;html=1;fillColor=#f8cecc;strokeColor=#b85450;" vertex="1" parent="lane_ops">
          <mxGeometry x="320" y="60" width="200" height="60" as="geometry"/>
        </mxCell>
        <mxCell id="o2" value="发布/归档" style="rounded=1;whiteSpace=wrap;html=1;fillColor=#f8cecc;strokeColor=#b85450;" vertex="1" parent="lane_ops">
          <mxGeometry x="760" y="60" width="140" height="60" as="geometry"/>
        </mxCell>

        <!-- 系统泳道节点 -->
        <mxCell id="s1" value="AI 分析与撰写" style="rounded=1;whiteSpace=wrap;html=1;fillColor=#dae8fc;strokeColor=#6c8ebf;" vertex="1" parent="lane_sys">
          <mxGeometry x="220" y="60" width="180" height="60" as="geometry"/>
        </mxCell>
        <mxCell id="s2" value="生成报告/导出" style="rounded=1;whiteSpace=wrap;html=1;fillColor=#dae8fc;strokeColor=#6c8ebf;" vertex="1" parent="lane_sys">
          <mxGeometry x="520" y="60" width="180" height="60" as="geometry"/>
        </mxCell>
        <mxCell id="s3" value="审计与追溯" style="rounded=1;whiteSpace=wrap;html=1;fillColor=#dae8fc;strokeColor=#6c8ebf;" vertex="1" parent="lane_sys">
          <mxGeometry x="880" y="60" width="160" height="60" as="geometry"/>
        </mxCell>

        <!-- 关键连线（跨泳道流转） -->
        <mxCell id="e_u1_s1" style="edgeStyle=elbowEdgeStyle;rounded=1;endArrow=block;html=1;strokeColor=#888;" edge="1" parent="1" source="u1" target="s1"><mxGeometry relative="1" as="geometry"/></mxCell>
        <mxCell id="e_s1_u2" style="edgeStyle=elbowEdgeStyle;rounded=1;endArrow=block;html=1;strokeColor=#888;" edge="1" parent="1" source="s1" target="u2"><mxGeometry relative="1" as="geometry"/></mxCell>
        <mxCell id="e_u2_s2" style="edgeStyle=elbowEdgeStyle;rounded=1;endArrow=block;html=1;strokeColor=#888;" edge="1" parent="1" source="u2" target="s2"><mxGeometry relative="1" as="geometry"/></mxCell>
        <mxCell id="e_s2_u3" style="edgeStyle=elbowEdgeStyle;rounded=1;endArrow=block;html=1;strokeColor=#888;" edge="1" parent="1" source="s2" target="u3"><mxGeometry relative="1" as="geometry"/></mxCell>
        <mxCell id="e_u3_o1" style="edgeStyle=elbowEdgeStyle;rounded=1;endArrow=block;html=1;strokeColor=#888;" edge="1" parent="1" source="u3" target="o1"><mxGeometry relative="1" as="geometry"/></mxCell>
        <mxCell id="e_o1_s3" style="edgeStyle=elbowEdgeStyle;rounded=1;endArrow=block;html=1;strokeColor=#888;" edge="1" parent="1" source="o1" target="s3"><mxGeometry relative="1" as="geometry"/></mxCell>
        <mxCell id="e_s3_o2" style="edgeStyle=elbowEdgeStyle;rounded=1;endArrow=block;html=1;strokeColor=#888;" edge="1" parent="1" source="s3" target="o2"><mxGeometry relative="1" as="geometry"/></mxCell>

      </root>
    </mxGraphModel>
  </diagram>
</mxfile>